# xmcd
#
# Track frame offsets:
#	150
#	16965
#	31890
#	46172
#	58845
#	71942
#	84387
#	101512
#	110690
#	125332
#
# Disc length: 1898 seconds
#
# Revision: 3
# Processed by: cddbd v1.5.2PL0 Copyright (c) Steve Scherf et al.
# Submitted via: audiograbber 1.83.01
#
DISCID=8207680a
DTITLE=Various Artist - Country Comedy Classics
DYEAR=1993
DGENRE=Oldies
TTITLE0=Johnny Cash - A Boy Named Sue
TTITLE1=Ben Colder - Almost Persuaded No. 2
TTITLE2=Billy Edd Wheeler - Ode To The Little Brown Shack
TTITLE3=Homer and Jethro - (How Much Is) That Hound Dog In The Window
TTITLE4=Moe Bandy and Joe Stampley - Where's The Dress
TTITLE5=Commander Cody and His Lost Planet Airmen - Hot Rod Lincoln
TTITLE6=Ray Stevens - Along Came Jones
TTITLE7=Mac Wiseman - Johnny's Cash And Charley's Pride
TTITLE8=Jim Stafford - My Girl Bill
TTITLE9=C.W. McCall - Convoy
EXTD=
EXTT0=
EXTT1=
EXTT2=
EXTT3=
EXTT4=
EXTT5=
EXTT6=
EXTT7=
EXTT8=
EXTT9=
PLAYORDER=
